<?xml version="1.0" encoding="UTF-8" standalone="no"?>
<!DOCTYPE svg PUBLIC "-//W3C//DTD SVG 1.1//EN" "http://www.w3.org/Graphics/SVG/1.1/DTD/svg11.dtd">
<svg width="100%" height="100%" viewBox="0 0 224 59" version="1.1" xmlns="http://www.w3.org/2000/svg" xmlns:xlink="http://www.w3.org/1999/xlink" xml:space="preserve" xmlns:serif="http://www.serif.com/" style="fill-rule:evenodd;clip-rule:evenodd;stroke-linejoin:round;stroke-miterlimit:2;">
    <g id="Artboard1" transform="matrix(0.845391,0,0,1,0,0)">
        <rect x="0" y="0" width="264.966" height="58.596" style="fill:none;"/>
        <g transform="matrix(1.18288,0,0,1,-60.1258,0.866775)">
            <g>
                <path d="M106.13,39.29C105.86,39.01 105.88,38.57 106.15,38.31C106.43,38.04 106.87,38.05 107.14,38.33C107.41,38.61 107.39,39.05 107.12,39.32C106.84,39.58 106.4,39.58 106.13,39.3L106.13,39.29ZM103.56,42.06C103.27,41.64 103.38,41.07 103.8,40.78C104.22,40.49 104.79,40.6 105.08,41.02C105.37,41.44 105.26,42.01 104.84,42.3C104.42,42.59 103.85,42.48 103.56,42.06ZM100.59,44.32C100.32,43.74 100.57,43.04 101.15,42.76C101.73,42.48 102.43,42.73 102.71,43.32C102.98,43.9 102.73,44.6 102.15,44.88C101.56,45.16 100.87,44.91 100.59,44.32ZM79.46,45.29C79.87,44.59 80.76,44.35 81.47,44.75C82.17,45.16 82.41,46.05 82.01,46.76C81.6,47.46 80.71,47.7 80,47.3C79.3,46.89 79.06,45.99 79.46,45.29ZM82.83,46.64C83.12,45.88 83.97,45.5 84.72,45.79C85.48,46.08 85.86,46.93 85.57,47.68C85.28,48.44 84.43,48.82 83.67,48.53C82.91,48.24 82.53,47.4 82.82,46.64L82.83,46.64ZM86.37,47.44C86.53,46.64 87.31,46.13 88.1,46.3C88.89,46.46 89.41,47.24 89.24,48.03C89.08,48.83 88.3,49.34 87.51,49.17C86.71,49.01 86.2,48.23 86.37,47.44ZM89.99,47.66C90.03,46.85 90.71,46.22 91.52,46.25C92.33,46.29 92.96,46.97 92.93,47.78C92.89,48.59 92.21,49.22 91.4,49.19C90.59,49.16 89.96,48.47 89.99,47.66ZM93.67,47.15C93.58,46.4 94.12,45.72 94.87,45.63C95.62,45.54 96.3,46.08 96.39,46.83C96.48,47.58 95.95,48.26 95.19,48.35C94.44,48.44 93.76,47.9 93.67,47.15ZM97.23,46.03C97.04,45.36 97.43,44.65 98.1,44.46C98.77,44.27 99.48,44.66 99.67,45.33C99.86,46 99.47,46.71 98.8,46.9C98.13,47.09 97.42,46.7 97.23,46.03Z" style="fill:rgb(238,52,63);fill-rule:nonzero;"/>
                <path d="M101.65,39.88C101.48,39.61 101.56,39.26 101.83,39.09C102.1,38.92 102.45,39 102.62,39.26C102.79,39.53 102.72,39.88 102.45,40.05C102.18,40.22 101.83,40.14 101.65,39.88ZM99.13,41.72C98.96,41.34 99.14,40.89 99.53,40.72C99.92,40.55 100.36,40.72 100.53,41.11C100.7,41.5 100.53,41.94 100.13,42.11C99.75,42.27 99.3,42.1 99.13,41.71L99.13,41.72ZM96.37,43.08C96.24,42.56 96.55,42.04 97.07,41.91C97.59,41.78 98.11,42.09 98.24,42.61C98.37,43.12 98.06,43.65 97.54,43.78C97.02,43.91 96.5,43.6 96.37,43.08ZM79.11,40.52C79.55,40.01 80.32,39.96 80.82,40.4C81.32,40.84 81.38,41.6 80.94,42.11C80.5,42.62 79.74,42.67 79.23,42.23C78.72,41.79 78.67,41.02 79.11,40.52ZM81.63,42.15C81.28,42.72 81.45,43.47 82.02,43.82C82.59,44.17 83.34,44 83.69,43.43C84.04,42.86 83.87,42.11 83.3,41.76C82.73,41.41 81.99,41.58 81.63,42.15ZM84.37,43.35C84.63,42.73 85.34,42.44 85.95,42.7C86.57,42.96 86.86,43.67 86.6,44.28C86.34,44.9 85.63,45.19 85.02,44.93C84.41,44.67 84.11,43.96 84.37,43.35ZM87.27,44.1C87.42,43.45 88.08,43.05 88.73,43.2C89.38,43.36 89.78,44.01 89.63,44.66C89.48,45.31 88.82,45.71 88.17,45.56C87.52,45.41 87.12,44.75 87.27,44.1ZM90.32,44.26C90.37,43.64 90.91,43.17 91.53,43.22C92.15,43.27 92.62,43.81 92.57,44.43C92.52,45.05 91.98,45.52 91.36,45.47C90.74,45.42 90.27,44.88 90.32,44.26ZM93.38,43.92C93.33,43.34 93.76,42.84 94.33,42.79C94.9,42.74 95.41,43.17 95.46,43.74C95.51,44.32 95.09,44.82 94.51,44.87C93.93,44.92 93.43,44.49 93.38,43.92Z" style="fill:rgb(238,52,63);fill-rule:nonzero;"/>
                <path d="M99.36,38.41C99.23,38.15 99.33,37.84 99.59,37.71C99.85,37.58 100.16,37.69 100.29,37.94C100.42,38.19 100.31,38.51 100.06,38.64C99.8,38.77 99.49,38.67 99.36,38.41ZM96.91,39.83C96.8,39.47 97,39.08 97.36,38.97C97.72,38.86 98.11,39.06 98.22,39.42C98.33,39.78 98.13,40.17 97.77,40.28C97.41,40.39 97.02,40.19 96.91,39.83ZM94.29,40.8C94.22,40.32 94.55,39.88 95.03,39.81C95.51,39.74 95.95,40.07 96.02,40.55C96.09,41.03 95.76,41.47 95.28,41.54C94.8,41.61 94.36,41.28 94.29,40.8ZM78.96,36.87C79.4,36.46 80.1,36.48 80.51,36.92C80.92,37.37 80.9,38.06 80.46,38.47C80.02,38.88 79.32,38.86 78.91,38.42C78.49,37.98 78.52,37.28 78.96,36.87ZM81.08,38.57C80.71,39.05 80.79,39.74 81.28,40.11C81.76,40.48 82.45,40.39 82.82,39.91C83.19,39.43 83.11,38.74 82.62,38.37C82.14,38 81.45,38.08 81.08,38.57ZM83.44,39.91C83.73,39.38 84.4,39.18 84.93,39.47C85.46,39.76 85.66,40.43 85.37,40.96C85.08,41.49 84.41,41.69 83.88,41.4C83.35,41.11 83.15,40.44 83.44,39.91ZM85.98,40.86C86.18,40.29 86.81,39.99 87.38,40.19C87.95,40.39 88.25,41.02 88.05,41.59C87.85,42.16 87.22,42.46 86.65,42.26C86.08,42.06 85.78,41.43 85.98,40.86ZM88.72,41.3C88.82,40.74 89.35,40.37 89.91,40.47C90.47,40.57 90.84,41.1 90.74,41.66C90.64,42.22 90.11,42.59 89.55,42.49C88.99,42.39 88.62,41.86 88.72,41.3ZM91.52,41.28C91.52,40.76 91.96,40.34 92.48,40.35C93.01,40.35 93.42,40.79 93.41,41.32C93.41,41.84 92.97,42.26 92.44,42.25C91.92,42.25 91.5,41.81 91.51,41.28L91.52,41.28Z" style="fill:rgb(238,52,63);fill-rule:nonzero;"/>
            </g>
            <g>
                <path d="M100.02,7.13C99.67,7.3 99.26,7.15 99.09,6.8C98.92,6.45 99.07,6.04 99.42,5.87C99.76,5.71 100.18,5.85 100.35,6.2C100.52,6.55 100.37,6.96 100.02,7.13ZM101.86,10.44C101.37,10.58 100.86,10.3 100.72,9.82C100.57,9.33 100.85,8.82 101.34,8.68C101.83,8.54 102.34,8.82 102.48,9.3C102.62,9.79 102.34,10.3 101.86,10.44ZM103.09,13.96C102.45,14.04 101.87,13.59 101.78,12.95C101.69,12.31 102.15,11.72 102.79,11.64C103.43,11.56 104.02,12.01 104.1,12.65C104.18,13.29 103.72,13.88 103.08,13.96L103.09,13.96ZM97.48,34.36C96.94,33.76 96.99,32.83 97.59,32.28C98.2,31.74 99.12,31.79 99.66,32.39C100.2,32.99 100.16,33.92 99.56,34.46C98.95,35 98.03,34.96 97.48,34.35L97.48,34.36ZM99.8,31.57C100.43,32.08 101.36,31.98 101.87,31.34C102.38,30.71 102.28,29.78 101.65,29.28C101.02,28.77 100.09,28.87 99.58,29.5C99.07,30.13 99.17,31.06 99.8,31.57ZM101.65,28.44C100.94,28.04 100.7,27.14 101.1,26.44C101.5,25.73 102.4,25.49 103.1,25.89C103.81,26.29 104.05,27.19 103.65,27.89C103.25,28.6 102.35,28.84 101.65,28.44ZM102.98,25.06C102.22,24.78 101.83,23.93 102.12,23.17C102.4,22.41 103.24,22.02 104.01,22.3C104.77,22.58 105.16,23.43 104.87,24.19C104.59,24.95 103.75,25.34 102.98,25.06ZM103.63,21.4C102.89,21.25 102.41,20.53 102.55,19.79C102.7,19.05 103.42,18.57 104.16,18.71C104.9,18.86 105.38,19.58 105.24,20.32C105.09,21.06 104.37,21.54 103.63,21.4ZM103.67,17.67C102.97,17.65 102.42,17.06 102.45,16.36C102.47,15.66 103.06,15.11 103.76,15.14C104.46,15.16 105.01,15.75 104.98,16.45C104.96,17.15 104.37,17.7 103.67,17.67Z" style="fill:rgb(236,0,137);fill-rule:nonzero;"/>
                <path d="M99.2,11.58C98.89,11.66 98.58,11.48 98.5,11.17C98.42,10.86 98.6,10.55 98.91,10.47C99.22,10.39 99.53,10.57 99.61,10.88C99.69,11.19 99.51,11.5 99.2,11.58ZM100.17,14.54C99.76,14.58 99.38,14.27 99.35,13.86C99.31,13.44 99.62,13.07 100.03,13.04C100.44,13 100.82,13.31 100.85,13.72C100.89,14.13 100.58,14.51 100.17,14.54ZM100.61,17.59C100.08,17.55 99.68,17.09 99.71,16.56C99.74,16.03 100.21,15.63 100.73,15.66C101.26,15.7 101.66,16.16 101.63,16.69C101.59,17.22 101.13,17.62 100.61,17.59ZM92.84,33.21C92.49,32.64 92.68,31.89 93.26,31.55C93.83,31.21 94.58,31.39 94.92,31.97C95.27,32.54 95.08,33.29 94.51,33.63C93.94,33.97 93.19,33.79 92.85,33.21L92.84,33.21ZM95.16,31.32C95.59,31.83 96.36,31.89 96.87,31.46C97.38,31.03 97.45,30.27 97.01,29.75C96.58,29.24 95.82,29.18 95.3,29.6C94.79,30.03 94.72,30.8 95.16,31.31L95.16,31.32ZM97.15,29.08C96.64,28.65 96.59,27.88 97.02,27.37C97.46,26.86 98.22,26.8 98.73,27.24C99.24,27.68 99.29,28.44 98.86,28.95C98.42,29.46 97.66,29.51 97.15,29.08ZM98.76,26.55C99.33,26.9 100.08,26.72 100.42,26.15C100.77,25.58 100.59,24.83 100.02,24.48C99.45,24.13 98.7,24.31 98.36,24.88C98.01,25.45 98.19,26.2 98.76,26.54L98.76,26.55ZM99.86,23.7C99.28,23.46 99.01,22.8 99.24,22.23C99.48,21.65 100.14,21.38 100.71,21.61C101.29,21.84 101.56,22.5 101.33,23.08C101.09,23.66 100.43,23.93 99.86,23.7ZM100.48,20.68C99.92,20.55 99.56,19.99 99.7,19.42C99.83,18.86 100.39,18.5 100.95,18.64C101.51,18.77 101.87,19.33 101.74,19.9C101.61,20.46 101.04,20.81 100.48,20.68Z" style="fill:rgb(236,0,137);fill-rule:nonzero;"/>
                <path d="M97.09,13.3C96.81,13.34 96.54,13.15 96.5,12.86C96.46,12.58 96.65,12.31 96.94,12.27C97.22,12.23 97.49,12.42 97.53,12.71C97.57,12.99 97.38,13.26 97.09,13.3ZM97.68,16.07C97.3,16.07 96.99,15.76 97,15.37C97,14.99 97.31,14.69 97.7,14.69C98.08,14.69 98.38,15 98.38,15.38C98.38,15.76 98.07,16.06 97.68,16.06L97.68,16.07ZM97.79,18.86C97.32,18.78 96.99,18.32 97.08,17.85C97.16,17.37 97.62,17.05 98.09,17.14C98.57,17.22 98.89,17.67 98.8,18.15C98.72,18.63 98.27,18.95 97.79,18.86ZM89.31,32.22C89.06,31.67 89.29,31.02 89.84,30.76C90.39,30.5 91.05,30.74 91.3,31.29C91.55,31.84 91.32,32.49 90.77,32.75C90.22,33.01 89.56,32.77 89.31,32.22ZM91.59,30.73C91.93,31.23 92.61,31.36 93.12,31.02C93.62,30.68 93.75,30 93.41,29.49C93.07,28.99 92.39,28.86 91.88,29.2C91.38,29.54 91.25,30.22 91.59,30.73ZM93.6,28.9C93.18,28.46 93.2,27.76 93.64,27.35C94.08,26.94 94.78,26.95 95.19,27.39C95.61,27.83 95.59,28.53 95.15,28.94C94.71,29.36 94.01,29.34 93.6,28.9ZM95.29,26.77C95.77,27.14 96.46,27.05 96.83,26.57C97.2,26.09 97.11,25.4 96.62,25.03C96.14,24.66 95.45,24.76 95.08,25.24C94.71,25.72 94.8,26.41 95.28,26.78L95.29,26.77ZM96.55,24.3C96.05,24.03 95.86,23.41 96.13,22.91C96.4,22.41 97.02,22.22 97.52,22.49C98.02,22.76 98.21,23.38 97.94,23.88C97.67,24.38 97.05,24.57 96.55,24.3ZM97.39,21.64C96.89,21.47 96.63,20.93 96.8,20.43C96.97,19.93 97.51,19.67 98.01,19.84C98.51,20.01 98.77,20.55 98.6,21.05C98.43,21.55 97.89,21.81 97.39,21.64Z" style="fill:rgb(236,0,137);fill-rule:nonzero;"/>
            </g>
            <g>
                <path d="M67.55,3C67.6,3.38 67.33,3.73 66.95,3.78C66.57,3.83 66.22,3.57 66.17,3.18C66.12,2.8 66.39,2.45 66.77,2.4C67.15,2.35 67.5,2.62 67.55,3ZM71.26,2.27C71.25,2.78 70.82,3.18 70.32,3.16C69.81,3.15 69.41,2.72 69.43,2.22C69.44,1.71 69.87,1.31 70.37,1.33C70.88,1.34 71.28,1.77 71.26,2.27ZM74.99,2.19C74.87,2.82 74.26,3.24 73.62,3.12C72.98,3 72.57,2.39 72.69,1.75C72.81,1.12 73.42,0.7 74.06,0.82C74.69,0.94 75.11,1.55 74.99,2.19ZM92.66,13.83C91.92,14.16 91.05,13.83 90.72,13.09C90.39,12.35 90.72,11.48 91.46,11.15C92.2,10.82 93.07,11.15 93.4,11.89C93.73,12.63 93.4,13.5 92.66,13.83ZM90.73,10.76C91.41,10.32 91.6,9.4 91.15,8.73C90.7,8.05 89.79,7.86 89.12,8.3C88.44,8.75 88.25,9.66 88.7,10.34C89.14,11.02 90.05,11.21 90.73,10.76ZM88.33,8.03C87.73,8.58 86.8,8.54 86.25,7.94C85.7,7.34 85.74,6.41 86.34,5.86C86.94,5.31 87.87,5.35 88.42,5.95C88.97,6.55 88.93,7.48 88.33,8.03ZM85.52,5.72C86.03,5.09 85.92,4.16 85.28,3.66C84.65,3.16 83.72,3.26 83.22,3.9C82.72,4.54 82.82,5.46 83.46,5.96C84.1,6.46 85.02,6.36 85.52,5.72ZM82.25,3.98C81.88,4.64 81.04,4.88 80.39,4.51C79.73,4.14 79.49,3.31 79.86,2.65C80.23,1.99 81.06,1.75 81.72,2.12C82.38,2.49 82.62,3.32 82.25,3.98ZM78.71,2.79C78.47,3.45 77.74,3.79 77.08,3.55C76.42,3.31 76.08,2.58 76.32,1.92C76.56,1.26 77.29,0.92 77.95,1.16C78.61,1.4 78.95,2.13 78.71,2.79Z" style="fill:rgb(107,87,165);fill-rule:nonzero;"/>
                <path d="M71.53,5.16C71.51,5.48 71.24,5.72 70.92,5.7C70.6,5.68 70.36,5.41 70.38,5.09C70.4,4.77 70.67,4.53 70.99,4.55C71.31,4.57 71.55,4.84 71.53,5.16ZM74.65,5.16C74.56,5.57 74.15,5.82 73.74,5.73C73.33,5.64 73.08,5.23 73.17,4.82C73.26,4.41 73.67,4.16 74.08,4.25C74.49,4.34 74.75,4.75 74.65,5.16ZM77.68,5.68C77.48,6.18 76.92,6.42 76.43,6.22C75.94,6.02 75.69,5.46 75.89,4.96C76.09,4.47 76.65,4.23 77.14,4.42C77.64,4.62 77.88,5.18 77.68,5.67L77.68,5.68ZM90.13,17.89C89.48,18.04 88.83,17.63 88.68,16.98C88.53,16.33 88.94,15.68 89.59,15.53C90.24,15.38 90.89,15.79 91.04,16.44C91.19,17.09 90.78,17.74 90.13,17.89ZM89.05,15.1C88.43,15.35 87.73,15.05 87.47,14.43C87.22,13.81 87.52,13.1 88.13,12.85C88.75,12.6 89.46,12.9 89.71,13.51C89.96,14.13 89.66,14.84 89.04,15.09L89.05,15.1ZM87.54,12.51C88.11,12.16 88.29,11.42 87.95,10.84C87.6,10.27 86.86,10.09 86.29,10.44C85.72,10.79 85.54,11.53 85.88,12.1C86.23,12.67 86.97,12.85 87.54,12.51ZM85.64,10.2C85.13,10.63 84.37,10.57 83.93,10.07C83.5,9.56 83.55,8.8 84.06,8.36C84.57,7.92 85.33,7.98 85.77,8.49C86.21,9 86.15,9.76 85.64,10.2ZM83.26,8.27C83.67,7.79 83.6,7.08 83.13,6.68C82.66,6.28 81.94,6.34 81.54,6.81C81.14,7.29 81.2,8 81.67,8.4C82.15,8.8 82.86,8.74 83.26,8.27ZM80.58,6.75C80.28,7.25 79.64,7.41 79.15,7.11C78.65,6.81 78.49,6.17 78.79,5.67C79.09,5.17 79.73,5.01 80.23,5.31C80.73,5.61 80.89,6.25 80.59,6.75L80.58,6.75Z" style="fill:rgb(107,87,165);fill-rule:nonzero;"/>
                <path d="M72.51,7.7C72.46,7.98 72.2,8.18 71.91,8.13C71.63,8.08 71.43,7.82 71.48,7.53C71.53,7.25 71.8,7.05 72.08,7.1C72.36,7.15 72.56,7.41 72.51,7.7ZM75.33,7.99C75.21,8.35 74.82,8.54 74.46,8.42C74.1,8.3 73.91,7.91 74.03,7.55C74.15,7.19 74.54,7 74.9,7.12C75.26,7.24 75.45,7.63 75.33,7.99ZM78.02,8.75C77.79,9.18 77.26,9.34 76.84,9.11C76.41,8.89 76.25,8.36 76.47,7.93C76.7,7.5 77.23,7.34 77.65,7.57C78.08,7.79 78.24,8.32 78.02,8.75ZM88.11,20.94C87.51,21.01 86.96,20.58 86.89,19.98C86.82,19.38 87.25,18.83 87.85,18.76C88.45,18.69 89,19.12 89.07,19.72C89.15,20.32 88.72,20.87 88.11,20.94ZM87.4,18.32C86.82,18.49 86.21,18.15 86.04,17.57C85.87,16.99 86.21,16.38 86.79,16.21C87.37,16.04 87.98,16.38 88.15,16.96C88.32,17.54 87.98,18.15 87.4,18.32ZM86.28,15.84C86.83,15.58 87.06,14.92 86.8,14.38C86.54,13.83 85.88,13.6 85.33,13.86C84.78,14.12 84.55,14.78 84.81,15.33C85.07,15.88 85.73,16.11 86.27,15.85L86.28,15.84ZM84.78,13.58C84.28,13.93 83.6,13.8 83.25,13.3C82.91,12.8 83.03,12.12 83.53,11.77C84.03,11.43 84.71,11.55 85.06,12.05C85.4,12.55 85.28,13.23 84.78,13.58ZM82.82,11.62C83.23,11.23 83.24,10.58 82.85,10.17C82.46,9.76 81.81,9.75 81.4,10.14C80.99,10.53 80.98,11.18 81.37,11.59C81.76,12 82.41,12.01 82.82,11.62ZM80.55,9.99C80.24,10.41 79.64,10.49 79.22,10.18C78.8,9.87 78.72,9.27 79.03,8.85C79.34,8.43 79.94,8.35 80.36,8.66C80.78,8.98 80.86,9.57 80.55,9.99Z" style="fill:rgb(107,87,165);fill-rule:nonzero;"/>
            </g>
            <g>
                <path d="M53.63,32.61C54.01,32.68 54.26,33.04 54.19,33.42C54.12,33.8 53.76,34.05 53.38,33.98C53,33.91 52.75,33.55 52.82,33.17C52.89,32.79 53.25,32.54 53.63,32.61ZM54.08,28.85C54.56,29.02 54.81,29.55 54.64,30.02C54.47,30.5 53.94,30.75 53.47,30.58C52.99,30.41 52.74,29.88 52.91,29.41C53.08,28.93 53.6,28.68 54.08,28.85ZM55.15,25.27C55.72,25.58 55.92,26.29 55.61,26.86C55.3,27.43 54.59,27.63 54.02,27.32C53.45,27.01 53.25,26.3 53.56,25.73C53.87,25.16 54.58,24.96 55.15,25.27ZM71.68,12.07C71.76,12.88 71.18,13.6 70.37,13.68C69.56,13.77 68.84,13.18 68.76,12.37C68.68,11.56 69.26,10.84 70.07,10.75C70.88,10.67 71.6,11.25 71.68,12.06L71.68,12.07ZM68.16,12.96C68.37,13.74 67.91,14.55 67.13,14.76C66.35,14.97 65.54,14.51 65.33,13.73C65.12,12.95 65.58,12.14 66.36,11.93C67.14,11.72 67.95,12.18 68.16,12.96ZM64.83,14.4C64.5,13.66 63.62,13.33 62.89,13.67C62.15,14 61.82,14.88 62.16,15.61C62.49,16.35 63.37,16.68 64.1,16.34C64.84,16.01 65.17,15.13 64.83,14.4ZM61.77,16.36C62.22,17.03 62.03,17.95 61.36,18.4C60.68,18.85 59.77,18.67 59.32,17.99C58.87,17.32 59.06,16.4 59.73,15.95C60.41,15.5 61.32,15.68 61.77,16.36ZM59.1,18.93C58.59,18.38 57.72,18.34 57.16,18.86C56.61,19.37 56.57,20.24 57.09,20.79C57.6,21.34 58.47,21.38 59.03,20.86C59.59,20.35 59.62,19.48 59.1,18.92L59.1,18.93ZM56.87,21.93C57.42,22.36 57.52,23.16 57.09,23.71C56.66,24.26 55.86,24.36 55.31,23.93C54.76,23.5 54.66,22.7 55.09,22.15C55.52,21.6 56.32,21.5 56.87,21.93Z" style="fill:rgb(255,214,0);fill-rule:nonzero;"/>
                <path d="M56.91,29.5C57.21,29.62 57.35,29.95 57.24,30.25C57.12,30.54 56.79,30.69 56.5,30.57C56.2,30.45 56.06,30.12 56.17,29.83C56.29,29.53 56.62,29.39 56.91,29.5ZM57.87,26.53C58.23,26.74 58.35,27.21 58.14,27.57C57.93,27.93 57.46,28.05 57.1,27.84C56.74,27.63 56.62,27.16 56.83,26.8C57.04,26.44 57.51,26.32 57.87,26.53ZM59.3,23.81C59.71,24.15 59.76,24.76 59.42,25.17C59.08,25.58 58.47,25.63 58.06,25.29C57.65,24.95 57.6,24.34 57.94,23.93C58.28,23.52 58.89,23.47 59.3,23.81ZM74.76,15.74C74.7,16.41 74.11,16.9 73.45,16.84C72.78,16.78 72.29,16.19 72.35,15.53C72.41,14.86 73,14.37 73.66,14.43C74.33,14.49 74.82,15.08 74.76,15.74ZM71.77,15.9C71.82,16.57 71.32,17.15 70.65,17.19C69.98,17.24 69.4,16.74 69.35,16.07C69.3,15.4 69.8,14.82 70.47,14.78C71.14,14.73 71.72,15.23 71.77,15.9ZM68.84,16.54C68.99,17.19 68.59,17.84 67.94,18C67.29,18.15 66.64,17.75 66.48,17.1C66.33,16.45 66.73,15.8 67.38,15.64C68.03,15.49 68.68,15.89 68.84,16.54ZM66.05,17.64C66.31,18.26 66.01,18.97 65.4,19.22C64.78,19.48 64.07,19.18 63.82,18.57C63.56,17.95 63.86,17.24 64.47,16.99C65.09,16.73 65.8,17.03 66.05,17.65L66.05,17.64ZM63.48,19.3C63.15,18.77 62.46,18.61 61.93,18.94C61.4,19.27 61.24,19.96 61.56,20.49C61.89,21.02 62.58,21.18 63.11,20.85C63.64,20.52 63.8,19.83 63.47,19.3L63.48,19.3ZM61.21,21.38C61.59,21.82 61.54,22.48 61.11,22.86C60.67,23.24 60.01,23.19 59.63,22.76C59.25,22.32 59.3,21.66 59.73,21.28C60.17,20.9 60.83,20.95 61.21,21.38Z" style="fill:rgb(255,214,0);fill-rule:nonzero;"/>
                <path d="M59.63,29.34C59.89,29.47 59.99,29.79 59.85,30.04C59.72,30.29 59.4,30.4 59.15,30.26C58.89,30.13 58.79,29.81 58.93,29.56C59.06,29.3 59.38,29.2 59.63,29.34ZM60.78,26.75C61.09,26.98 61.15,27.41 60.92,27.71C60.69,28.01 60.26,28.08 59.96,27.85C59.65,27.62 59.59,27.19 59.82,26.89C60.04,26.58 60.48,26.52 60.78,26.75ZM62.33,24.43C62.67,24.78 62.66,25.33 62.31,25.67C61.96,26.01 61.41,26 61.07,25.65C60.73,25.3 60.74,24.75 61.09,24.41C61.44,24.07 61.99,24.08 62.33,24.43ZM77.04,18.6C76.92,19.19 76.35,19.58 75.75,19.47C75.15,19.35 74.77,18.78 74.88,18.18C75,17.58 75.57,17.19 76.17,17.31C76.77,17.42 77.15,18 77.04,18.6ZM74.33,18.46C74.31,19.07 73.8,19.54 73.2,19.52C72.59,19.5 72.12,19 72.14,18.39C72.16,17.78 72.67,17.31 73.27,17.33C73.88,17.35 74.35,17.85 74.33,18.46ZM71.63,18.76C71.71,19.36 71.28,19.91 70.68,19.99C70.08,20.07 69.53,19.64 69.45,19.04C69.37,18.44 69.8,17.89 70.4,17.81C71,17.73 71.55,18.16 71.63,18.76ZM69.01,19.49C69.18,20.07 68.85,20.68 68.27,20.86C67.69,21.03 67.08,20.7 66.9,20.12C66.73,19.54 67.06,18.93 67.64,18.75C68.22,18.58 68.83,18.91 69.01,19.49ZM66.54,20.75C66.29,20.24 65.68,20.03 65.17,20.28C64.66,20.53 64.45,21.14 64.69,21.65C64.94,22.16 65.55,22.37 66.06,22.13C66.57,21.88 66.78,21.27 66.54,20.76L66.54,20.75ZM64.29,22.41C64.59,22.84 64.49,23.43 64.06,23.74C63.63,24.04 63.04,23.94 62.74,23.51C62.44,23.08 62.54,22.49 62.97,22.19C63.4,21.89 63.99,21.99 64.29,22.42L64.29,22.41Z" style="fill:rgb(255,214,0);fill-rule:nonzero;"/>
            </g>
            <g>
                <path d="M77.44,55.04C77.62,54.7 78.05,54.58 78.38,54.76C78.72,54.94 78.85,55.37 78.66,55.7C78.48,56.04 78.05,56.16 77.72,55.98C77.38,55.8 77.26,55.37 77.44,55.04ZM74.01,53.45C74.32,53.05 74.9,52.97 75.3,53.28C75.7,53.59 75.78,54.17 75.47,54.57C75.16,54.97 74.58,55.05 74.18,54.74C73.78,54.43 73.7,53.85 74.01,53.45ZM70.94,51.32C71.41,50.88 72.15,50.9 72.59,51.37C73.03,51.84 73.01,52.58 72.54,53.02C72.07,53.46 71.33,53.44 70.89,52.97C70.45,52.5 70.47,51.76 70.94,51.32ZM63.49,31.52C64.28,31.69 64.79,32.47 64.62,33.26C64.45,34.05 63.67,34.56 62.88,34.39C62.09,34.22 61.58,33.44 61.75,32.65C61.92,31.86 62.7,31.35 63.49,31.52ZM63.25,35.14C64.06,35.18 64.69,35.87 64.65,36.68C64.61,37.49 63.92,38.11 63.11,38.08C62.3,38.04 61.68,37.35 61.71,36.54C61.74,35.73 62.44,35.11 63.25,35.14ZM63.59,38.76C64.4,38.67 65.12,39.25 65.21,40.05C65.3,40.86 64.72,41.58 63.91,41.68C63.1,41.77 62.38,41.19 62.29,40.38C62.2,39.57 62.78,38.85 63.59,38.76ZM64.5,42.28C65.28,42.06 66.09,42.52 66.31,43.3C66.53,44.08 66.07,44.89 65.29,45.11C64.51,45.33 63.7,44.87 63.48,44.09C63.26,43.31 63.72,42.5 64.5,42.28ZM66.12,45.62C65.43,45.94 65.13,46.75 65.45,47.44C65.77,48.13 66.58,48.42 67.27,48.11C67.96,47.79 68.26,46.98 67.94,46.29C67.62,45.6 66.81,45.31 66.12,45.62ZM68.28,48.66C68.86,48.27 69.65,48.42 70.04,49C70.43,49.58 70.28,50.37 69.7,50.76C69.12,51.15 68.33,51 67.94,50.42C67.55,49.84 67.7,49.05 68.28,48.66Z" style="fill:rgb(243,110,33);fill-rule:nonzero;"/>
                <path d="M75.49,50.96C75.69,50.71 76.05,50.68 76.3,50.88C76.55,51.08 76.58,51.44 76.38,51.69C76.18,51.94 75.82,51.97 75.57,51.77C75.32,51.57 75.29,51.21 75.49,50.96ZM72.97,49.13C73.28,48.85 73.76,48.88 74.04,49.2C74.32,49.51 74.29,49.99 73.97,50.27C73.66,50.55 73.18,50.52 72.9,50.2C72.62,49.89 72.65,49.41 72.97,49.13ZM70.82,46.92C71.27,46.64 71.87,46.77 72.15,47.22C72.43,47.67 72.3,48.27 71.85,48.55C71.4,48.83 70.8,48.7 70.52,48.25C70.24,47.8 70.37,47.2 70.82,46.92ZM67.92,29.72C68.53,29.98 68.82,30.69 68.56,31.31C68.3,31.92 67.59,32.21 66.97,31.95C66.35,31.69 66.07,30.98 66.33,30.36C66.59,29.75 67.3,29.46 67.92,29.72ZM67.15,32.62C67.8,32.78 68.2,33.44 68.04,34.09C67.88,34.74 67.22,35.13 66.57,34.97C65.92,34.81 65.52,34.15 65.68,33.5C65.84,32.85 66.5,32.45 67.15,32.62ZM66.85,35.6C67.52,35.65 68.01,36.24 67.96,36.9C67.91,37.57 67.32,38.06 66.66,38.01C65.99,37.96 65.5,37.37 65.55,36.7C65.6,36.03 66.19,35.54 66.85,35.59L66.85,35.6ZM67.03,38.59C67.7,38.54 68.28,39.03 68.33,39.7C68.38,40.37 67.89,40.95 67.22,41C66.55,41.05 65.97,40.55 65.92,39.89C65.87,39.22 66.36,38.64 67.03,38.59ZM67.82,41.54C68.43,41.39 69.04,41.76 69.19,42.37C69.34,42.98 68.97,43.59 68.36,43.74C67.75,43.89 67.14,43.52 66.99,42.91C66.84,42.3 67.21,41.69 67.82,41.54ZM69.09,44.35C69.62,44.12 70.24,44.37 70.46,44.91C70.68,45.44 70.44,46.06 69.9,46.28C69.37,46.51 68.75,46.26 68.53,45.73C68.3,45.2 68.55,44.58 69.09,44.36L69.09,44.35Z" style="fill:rgb(243,110,33);fill-rule:nonzero;"/>
                <path d="M76.18,48.33C76.38,48.13 76.72,48.13 76.92,48.33C77.12,48.53 77.12,48.86 76.92,49.07C76.72,49.28 76.39,49.27 76.18,49.07C75.98,48.87 75.98,48.54 76.18,48.33ZM74.07,46.44C74.38,46.22 74.81,46.29 75.03,46.6C75.25,46.91 75.18,47.34 74.87,47.56C74.56,47.78 74.13,47.71 73.91,47.4C73.69,47.09 73.76,46.66 74.07,46.44ZM72.34,44.25C72.77,44.04 73.3,44.21 73.51,44.65C73.72,45.08 73.55,45.61 73.11,45.82C72.68,46.03 72.15,45.86 71.94,45.42C71.73,44.98 71.91,44.46 72.34,44.25ZM71.34,28.46C71.87,28.75 72.06,29.42 71.77,29.95C71.48,30.48 70.81,30.67 70.28,30.38C69.75,30.09 69.56,29.42 69.85,28.89C70.14,28.36 70.81,28.17 71.34,28.46ZM70.37,31C70.94,31.21 71.24,31.84 71.03,32.41C70.82,32.98 70.19,33.28 69.62,33.07C69.05,32.86 68.75,32.24 68.96,31.66C69.17,31.09 69.8,30.79 70.37,31ZM69.82,33.66C70.42,33.77 70.81,34.35 70.7,34.94C70.59,35.54 70.01,35.93 69.42,35.82C68.82,35.71 68.43,35.14 68.54,34.54C68.65,33.94 69.23,33.55 69.82,33.66ZM69.7,36.37C70.31,36.38 70.79,36.89 70.77,37.49C70.75,38.1 70.25,38.58 69.64,38.56C69.03,38.55 68.55,38.04 68.57,37.44C68.59,36.83 69.09,36.35 69.7,36.37ZM70.13,39.11C70.69,39.03 71.21,39.42 71.28,39.98C71.35,40.54 70.96,41.06 70.4,41.13C69.84,41.21 69.32,40.82 69.25,40.26C69.17,39.7 69.56,39.18 70.12,39.11L70.13,39.11ZM71.01,41.76C71.51,41.61 72.04,41.89 72.2,42.39C72.35,42.89 72.07,43.42 71.57,43.58C71.07,43.73 70.54,43.45 70.38,42.95C70.23,42.45 70.51,41.92 71.01,41.76Z" style="fill:rgb(243,110,33);fill-rule:nonzero;"/>
            </g>
        </g>
        <g transform="matrix(1.03504,0,0,1,-4.84368,0)">
            <g transform="matrix(1.14284,0,0,1,76.8731,-54.3818)">
                <path d="M11.17,83.28C10.83,83.37 9.34,83.64 7.61,83.64C4.9,83.64 1.23,82.31 1.23,76.74L1.23,73.43C1.23,67.77 4.91,66.53 7.61,66.53C9.35,66.53 10.84,66.8 11.17,66.89C11.46,66.98 11.67,67.09 11.67,67.41L11.67,68.92C11.67,69.19 11.56,69.39 11.22,69.39L11.18,69.39C10.39,69.32 8.86,69.21 7.66,69.21C5.77,69.21 4.39,70.23 4.39,73.43L4.39,76.74C4.39,79.88 5.77,80.96 7.66,80.96C8.86,80.96 10.39,80.85 11.18,80.78L11.22,80.78C11.56,80.78 11.67,80.98 11.67,81.25L11.67,82.76C11.67,83.08 11.47,83.19 11.17,83.28Z" style="fill:rgb(65,64,66);fill-rule:nonzero;"/>
            </g>
            <g transform="matrix(1.14284,0,0,1,76.8731,-54.3818)">
                <path d="M24.1,78.14L16.75,78.14L16.75,78.21C16.75,79.52 17.29,81.07 19.46,81.07C21.11,81.07 22.66,80.94 23.61,80.84L23.68,80.84C23.91,80.84 24.09,80.95 24.09,81.18L24.09,82.67C24.09,83.03 24.02,83.19 23.62,83.26C22.15,83.53 21.27,83.64 19.24,83.64C16.98,83.64 13.78,82.42 13.78,77.98L13.78,76.31C13.78,72.79 15.74,70.58 19.19,70.58C22.64,70.58 24.56,72.95 24.56,76.31L24.56,77.57C24.56,77.93 24.43,78.13 24.11,78.13L24.1,78.14ZM21.55,75.93C21.55,74.17 20.58,73.16 19.18,73.16C17.78,73.16 16.77,74.15 16.77,75.93L16.77,76.02L21.55,76.02L21.55,75.93Z" style="fill:rgb(65,64,66);fill-rule:nonzero;"/>
            </g>
            <g transform="matrix(1.14284,0,0,1,76.8731,-54.3818)">
                <path d="M37.07,83.46L34.99,83.46C34.74,83.46 34.54,83.23 34.54,82.99L34.54,75.64C34.54,73.68 34.36,73.11 32.62,73.11C31.85,73.11 31.02,73.43 30.07,73.92L30.07,82.99C30.07,83.24 29.87,83.46 29.62,83.46L27.54,83.46C27.29,83.46 27.09,83.23 27.09,82.99L27.09,71.2C27.09,70.95 27.29,70.75 27.54,70.75L29.5,70.75C29.75,70.75 29.95,70.95 29.95,71.2L29.95,71.67C31.26,70.84 32.11,70.59 33.6,70.59C36.85,70.59 37.5,72.78 37.5,75.64L37.5,82.99C37.5,83.24 37.3,83.46 37.05,83.46L37.07,83.46Z" style="fill:rgb(65,64,66);fill-rule:nonzero;"/>
            </g>
            <g transform="matrix(1.14284,0,0,1,76.8731,-54.3818)">
                <path d="M47.14,83.49C46.6,83.58 46.1,83.65 45.61,83.65C43.06,83.65 42.02,83.09 42.02,80.06L42.02,72.98L39.9,72.66C39.65,72.61 39.45,72.46 39.45,72.21L39.45,71.2C39.45,70.95 39.65,70.75 39.9,70.75L42.02,70.75L42.02,68.9C42.02,68.65 42.22,68.49 42.47,68.45L44.57,68.09L44.66,68.09C44.86,68.09 45.02,68.2 45.02,68.43L45.02,70.75L47.05,70.75C47.3,70.75 47.5,70.95 47.5,71.2L47.5,72.53C47.5,72.78 47.3,72.98 47.05,72.98L45.02,72.98L45.02,80.06C45.02,81.19 45.09,81.32 45.9,81.32L47.09,81.32C47.38,81.32 47.56,81.43 47.56,81.66L47.56,83.08C47.56,83.3 47.42,83.44 47.13,83.49L47.14,83.49Z" style="fill:rgb(65,64,66);fill-rule:nonzero;"/>
            </g>
            <g transform="matrix(1.14284,0,0,1,76.8731,-54.3818)">
                <path d="M55.69,73.11C54.47,73.11 53.53,73.43 52.58,73.92L52.58,82.99C52.58,83.24 52.38,83.46 52.13,83.46L50.05,83.46C49.8,83.46 49.6,83.23 49.6,82.99L49.6,71.2C49.6,70.95 49.8,70.75 50.05,70.75L52.01,70.75C52.26,70.75 52.46,70.95 52.46,71.2L52.46,71.67C53.57,70.81 54.78,70.59 55.69,70.59C55.94,70.59 56.14,70.79 56.14,71.04L56.14,72.66C56.14,72.91 55.94,73.11 55.69,73.11Z" style="fill:rgb(65,64,66);fill-rule:nonzero;"/>
            </g>
            <g transform="matrix(1.14284,0,0,1,76.8731,-54.3818)">
                <path d="M68.03,83.46L65.95,83.46C65.7,83.46 65.5,83.26 65.5,83.01L65.5,82.49C64.33,83.26 63.4,83.62 61.96,83.62C60.83,83.62 59.84,83.33 59.19,82.67C58.36,81.84 58.06,80.44 58.06,78.57L58.06,71.22C58.06,70.97 58.26,70.75 58.51,70.75L60.59,70.75C60.84,70.75 61.04,70.98 61.04,71.22L61.04,78.57C61.04,79.7 61.13,80.35 61.56,80.73C61.88,81 62.26,81.14 62.96,81.14C63.79,81.14 64.88,80.58 65.51,80.24L65.51,71.22C65.51,70.97 65.71,70.75 65.96,70.75L68.04,70.75C68.29,70.75 68.49,70.98 68.49,71.22L68.49,83.02C68.49,83.27 68.29,83.47 68.04,83.47L68.03,83.46Z" style="fill:rgb(65,64,66);fill-rule:nonzero;"/>
            </g>
            <g transform="matrix(1.14284,0,0,1,76.8731,-54.3818)">
                <path d="M87.17,83.46L85.09,83.46C84.84,83.46 84.64,83.23 84.64,82.99L84.64,75.32C84.64,73.58 84.28,73.13 83.02,73.13C82.59,73.13 81.74,73.27 80.92,73.69C80.99,74.19 81.01,74.75 81.01,75.32L81.01,82.99C81.01,83.24 80.81,83.46 80.56,83.46L78.49,83.46C78.24,83.46 78.04,83.23 78.04,82.99L78.04,75.32C78.04,73.58 77.75,73.13 76.49,73.13C76.02,73.13 75.34,73.38 74.41,73.87L74.41,82.98C74.41,83.23 74.21,83.45 73.96,83.45L71.88,83.45C71.63,83.45 71.43,83.22 71.43,82.98L71.43,71.19C71.43,70.94 71.63,70.74 71.88,70.74L73.84,70.74C74.09,70.74 74.29,70.94 74.29,71.19L74.29,71.66C75.24,71.05 76.19,70.58 77.52,70.58C78.85,70.58 79.64,70.96 80.16,71.59C81.31,70.96 82.33,70.58 83.88,70.58C86.95,70.58 87.62,72.68 87.62,75.32L87.62,82.99C87.62,83.24 87.42,83.46 87.17,83.46Z" style="fill:rgb(65,64,66);fill-rule:nonzero;"/>
            </g>
            <g transform="matrix(1.14284,0,0,1,76.8731,-54.3818)">
                <path d="M95.81,83.64C94.21,83.64 92.04,83.48 91.36,83.37C90.98,83.3 90.78,83.12 90.78,82.67L90.78,67.49C90.78,67.04 90.98,66.86 91.36,66.79C92.04,66.68 94.21,66.52 95.81,66.52C100.32,66.52 102.89,68.96 102.89,73.42L102.89,76.73C102.89,81.2 100.32,83.63 95.81,83.63L95.81,83.64ZM99.78,73.42C99.78,70.04 98.07,69.16 95.81,69.16C94.97,69.16 94.39,69.21 93.91,69.23L93.91,80.94C94.38,80.96 94.97,81.01 95.81,81.01C98.06,81.01 99.78,80.13 99.78,76.75L99.78,73.42Z" style="fill:rgb(65,64,66);fill-rule:nonzero;"/>
            </g>
            <g transform="matrix(1.14284,0,0,1,76.8731,-54.3818)">
                <path d="M115.56,78.14L108.21,78.14L108.21,78.21C108.21,79.52 108.75,81.07 110.91,81.07C112.56,81.07 114.11,80.94 115.06,80.84L115.13,80.84C115.36,80.84 115.54,80.95 115.54,81.18L115.54,82.67C115.54,83.03 115.47,83.19 115.07,83.26C113.6,83.53 112.72,83.64 110.69,83.64C108.43,83.64 105.23,82.42 105.23,77.98L105.23,76.31C105.23,72.79 107.19,70.58 110.64,70.58C114.09,70.58 116.01,72.95 116.01,76.31L116.01,77.57C116.01,77.93 115.87,78.13 115.56,78.13L115.56,78.14ZM113.01,75.93C113.01,74.17 112.04,73.16 110.64,73.16C109.24,73.16 108.23,74.15 108.23,75.93L108.23,76.02L113.01,76.02L113.01,75.93Z" style="fill:rgb(65,64,66);fill-rule:nonzero;"/>
            </g>
            <g transform="matrix(1.14284,0,0,1,76.8731,-54.3818)">
                <path d="M125.24,83.49C124.7,83.58 124.2,83.65 123.71,83.65C121.16,83.65 120.13,83.09 120.13,80.06L120.13,72.98L118.01,72.66C117.76,72.61 117.56,72.46 117.56,72.21L117.56,71.2C117.56,70.95 117.76,70.75 118.01,70.75L120.13,70.75L120.13,68.9C120.13,68.65 120.33,68.49 120.58,68.45L122.68,68.09L122.77,68.09C122.97,68.09 123.13,68.2 123.13,68.43L123.13,70.75L125.16,70.75C125.41,70.75 125.61,70.95 125.61,71.2L125.61,72.53C125.61,72.78 125.41,72.98 125.16,72.98L123.13,72.98L123.13,80.06C123.13,81.19 123.2,81.32 124.01,81.32L125.21,81.32C125.5,81.32 125.68,81.43 125.68,81.66L125.68,83.08C125.68,83.3 125.54,83.44 125.25,83.49L125.24,83.49Z" style="fill:rgb(65,64,66);fill-rule:nonzero;"/>
            </g>
            <g transform="matrix(1.14284,0,0,1,76.8731,-54.3818)">
                <path d="M130.36,69.05L128.17,69.05C127.92,69.05 127.7,68.85 127.7,68.6L127.7,66.61C127.7,66.36 127.93,66.16 128.17,66.16L130.36,66.16C130.61,66.16 130.81,66.36 130.81,66.61L130.81,68.6C130.81,68.85 130.61,69.05 130.36,69.05ZM130.3,83.46L128.22,83.46C127.97,83.46 127.77,83.23 127.77,82.99L127.77,71.2C127.77,70.95 127.97,70.75 128.22,70.75L130.3,70.75C130.55,70.75 130.75,70.95 130.75,71.2L130.75,82.99C130.75,83.24 130.55,83.46 130.3,83.46Z" style="fill:rgb(65,64,66);fill-rule:nonzero;"/>
            </g>
            <g transform="matrix(1.14284,0,0,1,76.8731,-54.3818)">
                <path d="M136.21,83.46L134.2,83.46C133.95,83.46 133.75,83.26 133.75,83.01L133.75,80.46C133.75,80.21 133.95,80.03 134.2,80.03L136.21,80.03C136.46,80.03 136.66,80.21 136.66,80.46L136.66,83.01C136.66,83.26 136.46,83.46 136.21,83.46Z" style="fill:rgb(65,64,66);fill-rule:nonzero;"/>
            </g>
            <g transform="matrix(1.14284,0,0,1,76.8731,-54.3818)">
                <path d="M147.19,83.35C146.67,83.49 145.66,83.64 144.28,83.64C141.35,83.64 139.14,81.84 139.14,78.16L139.14,76.06C139.14,72.38 141.35,70.58 144.28,70.58C145.66,70.58 146.67,70.74 147.19,70.87C147.57,70.96 147.66,71.09 147.66,71.46L147.66,72.93C147.66,73.16 147.48,73.27 147.25,73.27L147.18,73.27C146.28,73.16 145.74,73.11 144.27,73.11C143.21,73.11 142.1,73.72 142.1,76.06L142.1,78.16C142.1,80.5 143.21,81.11 144.27,81.11C145.74,81.11 146.28,81.06 147.18,80.95L147.25,80.95C147.48,80.95 147.66,81.06 147.66,81.29L147.66,82.76C147.66,83.12 147.57,83.26 147.19,83.35Z" style="fill:rgb(65,64,66);fill-rule:nonzero;"/>
            </g>
            <g transform="matrix(1.14284,0,0,1,76.8731,-54.3818)">
                <rect x="72.95" y="98.02" width="1.09" height="1.3" style="fill:rgb(77,77,79);fill-rule:nonzero;"/>
            </g>
            <g transform="matrix(1.14284,0,0,1,76.8731,-54.3818)">
                <rect x="76.35" y="98.02" width="1.09" height="1.3" style="fill:rgb(77,77,79);fill-rule:nonzero;"/>
            </g>
            <g transform="matrix(1.14284,0,0,1,76.8731,-54.3818)">
                <rect x="79.75" y="98.02" width="1.09" height="1.3" style="fill:rgb(77,77,79);fill-rule:nonzero;"/>
            </g>
            <g transform="matrix(1.14284,0,0,1,76.8731,-54.3818)">
                <rect x="82.85" y="92.22" width="0.86" height="7.1" style="fill:rgb(77,77,79);fill-rule:nonzero;"/>
            </g>
            <g transform="matrix(1.14284,0,0,1,76.8731,-54.3818)">
                <path d="M89.67,96.86L85.91,96.86C85.91,97.17 85.96,97.45 86.05,97.68C86.15,97.91 86.27,98.1 86.44,98.25C86.6,98.4 86.79,98.51 87,98.58C87.21,98.65 87.46,98.69 87.72,98.69C88.07,98.69 88.42,98.62 88.77,98.48C89.12,98.34 89.38,98.21 89.52,98.07L89.57,98.07L89.57,99.01C89.28,99.13 88.99,99.23 88.69,99.32C88.39,99.4 88.07,99.44 87.74,99.44C86.89,99.44 86.23,99.21 85.76,98.75C85.28,98.29 85.05,97.64 85.05,96.8C85.05,95.96 85.28,95.3 85.73,94.81C86.19,94.32 86.79,94.07 87.53,94.07C88.22,94.07 88.75,94.27 89.12,94.67C89.49,95.07 89.68,95.64 89.68,96.38L89.68,96.84L89.67,96.86ZM88.83,96.2C88.83,95.75 88.72,95.4 88.49,95.15C88.27,94.9 87.93,94.78 87.47,94.78C87.01,94.78 86.64,94.91 86.37,95.19C86.1,95.46 85.94,95.8 85.91,96.2L88.83,96.2ZM88.93,91.67L87.69,93.38L87.01,93.38L87.83,91.67L88.94,91.67L88.93,91.67Z" style="fill:rgb(77,77,79);fill-rule:nonzero;"/>
            </g>
            <g transform="matrix(1.14284,0,0,1,76.8731,-54.3818)">
                <path d="M93.62,99.27C93.46,99.31 93.28,99.35 93.09,99.37C92.9,99.4 92.73,99.41 92.58,99.41C92.06,99.41 91.66,99.27 91.39,98.99C91.12,98.71 90.98,98.26 90.98,97.64L90.98,94.93L90.4,94.93L90.4,94.21L90.98,94.21L90.98,92.74L91.84,92.74L91.84,94.21L93.61,94.21L93.61,94.93L91.84,94.93L91.84,97.25C91.84,97.52 91.84,97.73 91.86,97.88C91.87,98.03 91.92,98.17 91.99,98.3C92.06,98.42 92.15,98.51 92.27,98.57C92.39,98.63 92.57,98.65 92.81,98.65C92.95,98.65 93.1,98.63 93.25,98.59C93.4,98.55 93.51,98.51 93.58,98.49L93.63,98.49L93.63,99.26L93.62,99.27Z" style="fill:rgb(77,77,79);fill-rule:nonzero;"/>
            </g>
            <g transform="matrix(1.14284,0,0,1,76.8731,-54.3818)">
                <path d="M99.01,96.77C99.01,97.6 98.8,98.26 98.37,98.74C97.95,99.22 97.37,99.46 96.66,99.46C95.95,99.46 95.37,99.22 94.94,98.74C94.52,98.26 94.3,97.6 94.3,96.77C94.3,95.94 94.51,95.28 94.94,94.8C95.36,94.32 95.94,94.08 96.66,94.08C97.38,94.08 97.95,94.32 98.37,94.8C98.8,95.28 99.01,95.94 99.01,96.77ZM98.12,96.77C98.12,96.11 97.99,95.62 97.73,95.3C97.47,94.98 97.11,94.82 96.65,94.82C96.19,94.82 95.83,94.98 95.57,95.3C95.31,95.62 95.18,96.11 95.18,96.77C95.18,97.43 95.31,97.89 95.57,98.22C95.83,98.55 96.19,98.72 96.65,98.72C97.11,98.72 97.47,98.56 97.73,98.23C97.99,97.9 98.12,97.42 98.12,96.77Z" style="fill:rgb(77,77,79);fill-rule:nonzero;"/>
            </g>
            <g transform="matrix(1.14284,0,0,1,76.8731,-54.3818)">
                <path d="M108.11,96.71C108.11,97.12 108.05,97.5 107.93,97.84C107.81,98.18 107.64,98.47 107.43,98.71C107.23,98.94 106.99,99.11 106.72,99.23C106.45,99.35 106.16,99.41 105.85,99.41C105.59,99.41 105.34,99.38 105.13,99.32C104.92,99.26 104.7,99.17 104.48,99.05L104.48,101.19L103.62,101.19L103.62,94.21L104.48,94.21L104.48,94.74C104.71,94.55 104.96,94.39 105.25,94.26C105.54,94.13 105.84,94.07 106.16,94.07C106.77,94.07 107.25,94.3 107.6,94.77C107.94,95.23 108.11,95.88 108.11,96.7L108.11,96.71ZM107.22,96.73C107.22,96.12 107.12,95.66 106.91,95.35C106.7,95.05 106.38,94.89 105.94,94.89C105.69,94.89 105.44,94.94 105.19,95.05C104.94,95.16 104.7,95.3 104.48,95.47L104.48,98.36C104.72,98.47 104.93,98.54 105.11,98.58C105.28,98.62 105.48,98.64 105.71,98.64C106.19,98.64 106.56,98.48 106.83,98.16C107.1,97.84 107.23,97.36 107.23,96.73L107.22,96.73Z" style="fill:rgb(77,77,79);fill-rule:nonzero;"/>
            </g>
            <g transform="matrix(1.14284,0,0,1,76.8731,-54.3818)">
                <rect x="109.45" y="92.22" width="0.86" height="7.1" style="fill:rgb(77,77,79);fill-rule:nonzero;"/>
            </g>
            <g transform="matrix(1.14284,0,0,1,76.8731,-54.3818)">
                <path d="M116.27,99.32L115.41,99.32L115.41,96.42C115.41,96.19 115.4,95.96 115.37,95.76C115.34,95.56 115.29,95.39 115.22,95.28C115.14,95.15 115.03,95.06 114.89,94.99C114.75,94.93 114.56,94.9 114.33,94.9C114.1,94.9 113.85,94.96 113.6,95.07C113.34,95.19 113.1,95.33 112.86,95.51L112.86,99.32L112,99.32L112,94.22L112.86,94.22L112.86,94.79C113.13,94.57 113.41,94.39 113.69,94.27C113.98,94.14 114.27,94.08 114.57,94.08C115.12,94.08 115.54,94.25 115.83,94.58C116.12,94.91 116.26,95.39 116.26,96.01L116.26,99.32L116.27,99.32Z" style="fill:rgb(77,77,79);fill-rule:nonzero;"/>
            </g>
            <g transform="matrix(1.14284,0,0,1,76.8731,-54.3818)">
                <path d="M122.19,96.86L118.43,96.86C118.43,97.17 118.48,97.45 118.57,97.68C118.66,97.91 118.79,98.1 118.96,98.25C119.12,98.4 119.31,98.51 119.52,98.58C119.74,98.65 119.98,98.69 120.24,98.69C120.59,98.69 120.94,98.62 121.29,98.48C121.64,98.34 121.89,98.21 122.04,98.07L122.08,98.07L122.08,99.01C121.79,99.13 121.5,99.23 121.2,99.32C120.9,99.41 120.58,99.44 120.25,99.44C119.41,99.44 118.74,99.21 118.27,98.75C117.8,98.29 117.56,97.64 117.56,96.8C117.56,95.96 117.79,95.3 118.24,94.81C118.7,94.32 119.3,94.07 120.04,94.07C120.73,94.07 121.26,94.27 121.63,94.67C122,95.07 122.19,95.64 122.19,96.38L122.19,96.86ZM121.36,96.2C121.36,95.75 121.24,95.4 121.02,95.15C120.8,94.9 120.46,94.78 120,94.78C119.54,94.78 119.17,94.91 118.9,95.19C118.63,95.46 118.48,95.8 118.44,96.2L121.36,96.2ZM121.46,91.67L120.21,93.38L119.53,93.38L120.35,91.67L121.46,91.67Z" style="fill:rgb(77,77,79);fill-rule:nonzero;"/>
            </g>
            <g transform="matrix(1.14284,0,0,1,76.8731,-54.3818)">
                <path d="M130.48,99.32L126.36,99.32L126.36,98.69L129.33,94.94L126.42,94.94L126.42,94.22L130.4,94.22L130.4,94.83L127.41,98.59L130.47,98.59L130.47,99.32L130.48,99.32Z" style="fill:rgb(77,77,79);fill-rule:nonzero;"/>
            </g>
            <g transform="matrix(1.14284,0,0,1,76.8731,-54.3818)">
                <path d="M135.66,99.32L134.81,99.32L134.81,98.78C134.73,98.83 134.63,98.9 134.5,99C134.37,99.09 134.25,99.17 134.12,99.22C133.98,99.29 133.81,99.35 133.63,99.4C133.44,99.45 133.22,99.47 132.98,99.47C132.52,99.47 132.13,99.32 131.81,99.01C131.49,98.71 131.33,98.32 131.33,97.85C131.33,97.46 131.41,97.15 131.58,96.91C131.75,96.67 131.99,96.48 132.29,96.35C132.6,96.21 132.98,96.12 133.41,96.07C133.84,96.02 134.31,95.98 134.81,95.96L134.81,95.83C134.81,95.63 134.78,95.47 134.71,95.35C134.64,95.22 134.54,95.12 134.41,95.05C134.29,94.98 134.14,94.93 133.97,94.91C133.8,94.89 133.62,94.87 133.43,94.87C133.21,94.87 132.96,94.9 132.68,94.96C132.4,95.02 132.12,95.11 131.82,95.22L131.77,95.22L131.77,94.35C131.94,94.3 132.18,94.25 132.49,94.2C132.81,94.15 133.12,94.12 133.43,94.12C133.79,94.12 134.1,94.15 134.37,94.21C134.64,94.27 134.87,94.37 135.06,94.51C135.25,94.65 135.4,94.83 135.5,95.05C135.6,95.27 135.65,95.55 135.65,95.88L135.65,99.34L135.66,99.32ZM134.81,98.07L134.81,96.65C134.55,96.67 134.24,96.69 133.89,96.72C133.53,96.75 133.25,96.79 133.05,96.85C132.8,96.92 132.6,97.03 132.45,97.18C132.3,97.33 132.22,97.53 132.22,97.79C132.22,98.08 132.31,98.3 132.48,98.45C132.66,98.6 132.93,98.67 133.29,98.67C133.59,98.67 133.87,98.61 134.11,98.49C134.36,98.37 134.59,98.23 134.81,98.07ZM135.12,91.67L133.87,93.38L133.19,93.38L134,91.67L135.12,91.67Z" style="fill:rgb(77,77,79);fill-rule:nonzero;"/>
            </g>
            <g transform="matrix(1.14284,0,0,1,76.8731,-54.3818)">
                <path d="M141.8,96.73C141.8,97.16 141.74,97.54 141.62,97.88C141.5,98.22 141.34,98.51 141.13,98.74C140.91,98.98 140.68,99.16 140.42,99.28C140.16,99.4 139.88,99.46 139.57,99.46C139.28,99.46 139.03,99.43 138.81,99.36C138.6,99.29 138.38,99.2 138.17,99.08L138.11,99.32L137.31,99.32L137.31,92.22L138.17,92.22L138.17,94.76C138.41,94.56 138.67,94.4 138.94,94.27C139.21,94.14 139.51,94.08 139.85,94.08C140.46,94.08 140.93,94.31 141.28,94.77C141.63,95.23 141.8,95.89 141.8,96.73ZM140.92,96.75C140.92,96.14 140.82,95.68 140.62,95.36C140.42,95.05 140.1,94.89 139.65,94.89C139.4,94.89 139.15,94.94 138.89,95.05C138.64,95.16 138.4,95.3 138.18,95.47L138.18,98.39C138.42,98.5 138.63,98.57 138.81,98.62C138.98,98.66 139.18,98.68 139.41,98.68C139.88,98.68 140.26,98.52 140.53,98.21C140.8,97.9 140.93,97.41 140.93,96.74L140.92,96.75Z" style="fill:rgb(77,77,79);fill-rule:nonzero;"/>
            </g>
            <g transform="matrix(1.14284,0,0,1,76.8731,-54.3818)">
                <path d="M147.1,99.32L146.24,99.32L146.24,98.78C146.16,98.83 146.06,98.9 145.93,99C145.8,99.09 145.67,99.17 145.55,99.22C145.41,99.29 145.24,99.35 145.05,99.4C144.86,99.45 144.65,99.47 144.4,99.47C143.94,99.47 143.55,99.32 143.23,99.01C142.91,98.71 142.75,98.32 142.75,97.85C142.75,97.46 142.83,97.15 143,96.91C143.16,96.67 143.4,96.48 143.71,96.35C144.02,96.21 144.39,96.12 144.83,96.07C145.27,96.02 145.74,95.98 146.23,95.96L146.23,95.83C146.23,95.63 146.2,95.47 146.13,95.35C146.06,95.22 145.96,95.12 145.83,95.05C145.71,94.98 145.56,94.93 145.39,94.91C145.22,94.89 145.04,94.87 144.86,94.87C144.64,94.87 144.38,94.9 144.11,94.96C143.83,95.02 143.55,95.11 143.25,95.22L143.2,95.22L143.2,94.35C143.37,94.3 143.61,94.25 143.93,94.2C144.25,94.15 144.56,94.12 144.87,94.12C145.23,94.12 145.54,94.15 145.81,94.21C146.07,94.27 146.31,94.37 146.5,94.51C146.69,94.65 146.84,94.83 146.94,95.05C147.04,95.27 147.09,95.55 147.09,95.88L147.09,99.34L147.1,99.32ZM146.24,98.07L146.24,96.65C145.98,96.67 145.67,96.69 145.32,96.72C144.97,96.75 144.69,96.79 144.48,96.85C144.23,96.92 144.03,97.03 143.88,97.18C143.73,97.33 143.65,97.53 143.65,97.79C143.65,98.08 143.74,98.3 143.92,98.45C144.1,98.6 144.37,98.67 144.73,98.67C145.03,98.67 145.31,98.61 145.56,98.49C145.81,98.37 146.04,98.23 146.25,98.07L146.24,98.07Z" style="fill:rgb(77,77,79);fill-rule:nonzero;"/>
            </g>
            <g transform="matrix(1.14284,0,0,1,76.8731,-54.3818)">
                <path d="M153.09,94.22L151.03,99.32L150.17,99.32L148.12,94.22L149.05,94.22L150.63,98.28L152.2,94.22L153.1,94.22L153.09,94.22Z" style="fill:rgb(77,77,79);fill-rule:nonzero;"/>
            </g>
            <g transform="matrix(1.14284,0,0,1,76.8731,-54.3818)">
                <path d="M158.38,83.46L150.48,83.46C149.98,83.46 149.58,83.05 149.58,82.56L149.58,81.59C149.58,81.34 149.67,81.14 149.87,80.87L155.33,73.36C155.38,73.29 155.4,73.27 155.4,73.23C155.4,73.19 155.33,73.16 155.26,73.16L150.17,73.16C149.94,73.16 149.76,73.02 149.76,72.8L149.76,71.2C149.76,70.95 149.96,70.75 150.21,70.75L157.88,70.75C158.38,70.75 158.78,71.18 158.78,71.67L158.78,72.96C158.78,73.07 158.73,73.39 158.67,73.48L153.41,80.67L153.36,80.74C153.36,80.81 153.41,80.83 153.5,80.83L158.42,80.83C158.64,80.83 158.83,80.97 158.83,81.19L158.83,83.02C158.83,83.27 158.63,83.47 158.38,83.47L158.38,83.46Z" style="fill:rgb(65,64,66);fill-rule:nonzero;"/>
            </g>
            <g transform="matrix(1.14284,0,0,1,76.8731,-54.3818)">
                <path d="M158.62,94.22L155.64,101.2L154.72,101.2L155.67,99.07L153.64,94.22L154.57,94.22L156.14,98L157.72,94.22L158.62,94.22Z" style="fill:rgb(77,77,79);fill-rule:nonzero;"/>
            </g>
        </g>
    </g>
</svg>
